<svg width="892" height="402" viewBox="0 0 892 402" fill="none" xmlns="http://www.w3.org/2000/svg">
<path fill-rule="evenodd" clip-rule="evenodd" d="M892 40.5H0V39.5H892V40.5Z" fill="black"/>
<g opacity="0.2">
<path d="M7.61353 0.54541H10.034L14.8749 8.69314H15.0794L19.9203 0.54541H22.3408L16.034 10.8068V18H13.9203V10.8068L7.61353 0.54541Z" fill="black"/>
<path d="M28.2684 18.2727C27.0865 18.2727 26.0496 17.9914 25.1576 17.4289C24.2712 16.8664 23.578 16.0795 23.078 15.0681C22.5837 14.0568 22.3365 12.875 22.3365 11.5227C22.3365 10.159 22.5837 8.96871 23.078 7.95166C23.578 6.93461 24.2712 6.14484 25.1576 5.58234C26.0496 5.01984 27.0865 4.73859 28.2684 4.73859C29.4502 4.73859 30.4843 5.01984 31.3706 5.58234C32.2627 6.14484 32.9559 6.93461 33.4502 7.95166C33.9502 8.96871 34.2002 10.159 34.2002 11.5227C34.2002 12.875 33.9502 14.0568 33.4502 15.0681C32.9559 16.0795 32.2627 16.8664 31.3706 17.4289C30.4843 17.9914 29.4502 18.2727 28.2684 18.2727ZM28.2684 16.4659C29.1661 16.4659 29.9047 16.2358 30.4843 15.7755C31.0638 15.3153 31.4928 14.7102 31.7712 13.9602C32.0496 13.2102 32.1888 12.3977 32.1888 11.5227C32.1888 10.6477 32.0496 9.83234 31.7712 9.07666C31.4928 8.32098 31.0638 7.71018 30.4843 7.24427C29.9047 6.77837 29.1661 6.54541 28.2684 6.54541C27.3706 6.54541 26.632 6.77837 26.0524 7.24427C25.4729 7.71018 25.0439 8.32098 24.7655 9.07666C24.4871 9.83234 24.3479 10.6477 24.3479 11.5227C24.3479 12.3977 24.4871 13.2102 24.7655 13.9602C25.0439 14.7102 25.4729 15.3153 26.0524 15.7755C26.632 16.2358 27.3706 16.4659 28.2684 16.4659Z" fill="black"/>
<path d="M45.5205 12.6477V4.90905H47.5318V18H45.5205V15.784H45.3841C45.0773 16.4488 44.6 17.0142 43.9523 17.4801C43.3046 17.9403 42.4864 18.1704 41.4978 18.1704C40.6796 18.1704 39.9523 17.9914 39.3159 17.6335C38.6796 17.2698 38.1796 16.7244 37.8159 15.9971C37.4523 15.2642 37.2705 14.3409 37.2705 13.2272V4.90905H39.2818V13.0909C39.2818 14.0454 39.5489 14.8068 40.083 15.375C40.6228 15.9431 41.3103 16.2272 42.1455 16.2272C42.6455 16.2272 43.154 16.0994 43.6711 15.8437C44.1938 15.588 44.6313 15.196 44.9836 14.6676C45.3415 14.1392 45.5205 13.4659 45.5205 12.6477Z" fill="black"/>
<path d="M51.2158 18V4.90905H53.159V6.88632H53.2953C53.534 6.23859 53.9658 5.71302 54.5908 5.30961C55.2158 4.90621 55.9203 4.7045 56.7044 4.7045C56.8522 4.7045 57.0368 4.70734 57.2584 4.71302C57.48 4.71871 57.6476 4.72723 57.7613 4.73859V6.78405C57.6931 6.767 57.5368 6.74143 57.2925 6.70734C57.0539 6.66757 56.801 6.64768 56.534 6.64768C55.8976 6.64768 55.3294 6.78121 54.8294 7.04825C54.3351 7.30961 53.9431 7.67325 53.6533 8.13916C53.3692 8.59939 53.2272 9.12496 53.2272 9.71587V18H51.2158Z" fill="black"/>
<path d="M68.9068 10.125V18H66.8955V4.90905H68.8387V6.9545H69.0091C69.3159 6.28973 69.7818 5.75564 70.4068 5.35223C71.0318 4.94314 71.8387 4.73859 72.8273 4.73859C73.7137 4.73859 74.4892 4.92041 75.154 5.28405C75.8188 5.642 76.3358 6.18746 76.7051 6.92041C77.0745 7.64768 77.2591 8.56814 77.2591 9.68177V18H75.2478V9.81814C75.2478 8.78973 74.9807 7.98859 74.4466 7.41473C73.9125 6.83518 73.1796 6.54541 72.2478 6.54541C71.6057 6.54541 71.0319 6.68462 70.5262 6.96302C70.0262 7.24143 69.6313 7.64768 69.3415 8.18177C69.0517 8.71587 68.9068 9.36359 68.9068 10.125Z" fill="black"/>
<path d="M84.7868 18.3068C83.9573 18.3068 83.2044 18.1505 82.5283 17.838C81.8522 17.5198 81.3152 17.0625 80.9175 16.4659C80.5198 15.8636 80.3209 15.1363 80.3209 14.284C80.3209 13.534 80.4686 12.9261 80.7641 12.4602C81.0595 11.9886 81.4544 11.6193 81.9487 11.3522C82.4431 11.0852 82.9885 10.8863 83.5851 10.7556C84.1874 10.6193 84.7925 10.5113 85.4005 10.4318C86.1959 10.3295 86.8408 10.2528 87.3351 10.2017C87.8351 10.1448 88.1988 10.0511 88.426 9.92041C88.659 9.78973 88.7755 9.56246 88.7755 9.23859V9.17041C88.7755 8.3295 88.5453 7.67609 88.0851 7.21018C87.6306 6.74427 86.9402 6.51132 86.0141 6.51132C85.0539 6.51132 84.301 6.72155 83.7556 7.142C83.2101 7.56246 82.8266 8.01132 82.605 8.48859L80.6959 7.80677C81.0368 7.01132 81.4914 6.392 82.0595 5.94882C82.6334 5.49996 83.2584 5.18746 83.9345 5.01132C84.6164 4.8295 85.2868 4.73859 85.9459 4.73859C86.3664 4.73859 86.8493 4.78973 87.3948 4.892C87.9459 4.98859 88.4772 5.1903 88.9885 5.49711C89.5056 5.80393 89.9345 6.267 90.2755 6.88632C90.6164 7.50564 90.7868 8.33518 90.7868 9.37496V18H88.7755V16.2272H88.6732C88.5368 16.5113 88.3095 16.8153 87.9914 17.1392C87.6732 17.463 87.2499 17.7386 86.7215 17.9659C86.1931 18.1931 85.5482 18.3068 84.7868 18.3068ZM85.0936 16.5C85.8891 16.5 86.5595 16.3437 87.105 16.0312C87.6561 15.7187 88.0709 15.3153 88.3493 14.821C88.6334 14.3267 88.7755 13.8068 88.7755 13.2613V11.4204C88.6902 11.5227 88.5027 11.6164 88.213 11.7017C87.9289 11.7812 87.5993 11.8522 87.2243 11.9147C86.855 11.9715 86.4942 12.0227 86.1419 12.0681C85.7953 12.1079 85.5141 12.142 85.2982 12.1704C84.7755 12.2386 84.2868 12.3494 83.8323 12.5028C83.3834 12.6505 83.0198 12.875 82.7414 13.1761C82.4686 13.4715 82.3323 13.875 82.3323 14.3863C82.3323 15.0852 82.5908 15.6136 83.1078 15.9715C83.6306 16.3238 84.2925 16.5 85.0936 16.5Z" fill="black"/>
<path d="M94.458 18V4.90905H96.4012V6.9545H96.5716C96.8443 6.25564 97.2847 5.71302 97.8926 5.32666C98.5006 4.93462 99.2307 4.73859 100.083 4.73859C100.947 4.73859 101.665 4.93462 102.239 5.32666C102.819 5.71302 103.27 6.25564 103.594 6.9545H103.731C104.066 6.27836 104.569 5.74143 105.239 5.34371C105.91 4.9403 106.714 4.73859 107.651 4.73859C108.822 4.73859 109.779 5.10507 110.523 5.83802C111.268 6.5653 111.64 7.69882 111.64 9.23859V18H109.628V9.23859C109.628 8.27268 109.364 7.58234 108.836 7.16757C108.307 6.7528 107.685 6.54541 106.969 6.54541C106.049 6.54541 105.336 6.82382 104.83 7.38064C104.324 7.93177 104.072 8.63064 104.072 9.47723V18H102.026V9.03405C102.026 8.28973 101.785 7.6903 101.302 7.23575C100.819 6.77552 100.197 6.54541 99.4353 6.54541C98.9125 6.54541 98.4239 6.68462 97.9693 6.96302C97.5205 7.24143 97.1568 7.6278 96.8784 8.12212C96.6057 8.61075 96.4693 9.17609 96.4693 9.81814V18H94.458Z" fill="black"/>
<path d="M120.806 18.2727C119.545 18.2727 118.457 17.9943 117.542 17.4375C116.633 16.875 115.931 16.0909 115.437 15.0852C114.948 14.0738 114.704 12.8977 114.704 11.5568C114.704 10.2159 114.948 9.03405 115.437 8.01132C115.931 6.98291 116.618 6.18177 117.499 5.60791C118.386 5.02837 119.42 4.73859 120.601 4.73859C121.283 4.73859 121.957 4.85223 122.621 5.0795C123.286 5.30677 123.891 5.67609 124.437 6.18746C124.982 6.69314 125.417 7.36359 125.741 8.19882C126.065 9.03405 126.226 10.0625 126.226 11.284V12.1363H116.136V10.3977H124.181C124.181 9.65905 124.033 8.99996 123.738 8.42041C123.448 7.84086 123.033 7.38348 122.493 7.04825C121.959 6.71302 121.329 6.54541 120.601 6.54541C119.8 6.54541 119.107 6.74427 118.522 7.142C117.942 7.53405 117.496 8.04541 117.184 8.67609C116.871 9.30677 116.715 9.98291 116.715 10.7045V11.8636C116.715 12.8522 116.886 13.6903 117.226 14.3778C117.573 15.0596 118.053 15.5795 118.667 15.9375C119.28 16.2897 119.993 16.4659 120.806 16.4659C121.334 16.4659 121.812 16.392 122.238 16.2443C122.67 16.0909 123.042 15.8636 123.354 15.5625C123.667 15.2556 123.908 14.875 124.079 14.4204L126.022 14.9659C125.817 15.625 125.474 16.2045 124.991 16.7045C124.508 17.1988 123.911 17.5852 123.201 17.8636C122.491 18.1363 121.692 18.2727 120.806 18.2727Z" fill="black"/>
</g>
<path fill-rule="evenodd" clip-rule="evenodd" d="M892 130.5H0V129.5H892V130.5Z" fill="black"/>
<g opacity="0.2">
<path d="M7.61353 90.5455H10.034L14.8749 98.6932H15.0794L19.9203 90.5455H22.3408L16.034 100.807V108H13.9203V100.807L7.61353 90.5455Z" fill="black"/>
<path d="M28.2684 108.273C27.0865 108.273 26.0496 107.991 25.1576 107.429C24.2712 106.866 23.578 106.08 23.078 105.068C22.5837 104.057 22.3365 102.875 22.3365 101.523C22.3365 100.159 22.5837 98.9687 23.078 97.9517C23.578 96.9347 24.2712 96.1449 25.1576 95.5824C26.0496 95.0199 27.0865 94.7386 28.2684 94.7386C29.4502 94.7386 30.4843 95.0199 31.3706 95.5824C32.2627 96.1449 32.9559 96.9347 33.4502 97.9517C33.9502 98.9687 34.2002 100.159 34.2002 101.523C34.2002 102.875 33.9502 104.057 33.4502 105.068C32.9559 106.08 32.2627 106.866 31.3706 107.429C30.4843 107.991 29.4502 108.273 28.2684 108.273ZM28.2684 106.466C29.1661 106.466 29.9047 106.236 30.4843 105.776C31.0638 105.315 31.4928 104.71 31.7712 103.96C32.0496 103.21 32.1888 102.398 32.1888 101.523C32.1888 100.648 32.0496 99.8324 31.7712 99.0767C31.4928 98.321 31.0638 97.7102 30.4843 97.2443C29.9047 96.7784 29.1661 96.5455 28.2684 96.5455C27.3706 96.5455 26.632 96.7784 26.0524 97.2443C25.4729 97.7102 25.0439 98.321 24.7655 99.0767C24.4871 99.8324 24.3479 100.648 24.3479 101.523C24.3479 102.398 24.4871 103.21 24.7655 103.96C25.0439 104.71 25.4729 105.315 26.0524 105.776C26.632 106.236 27.3706 106.466 28.2684 106.466Z" fill="black"/>
<path d="M45.5205 102.648V94.9091H47.5318V108H45.5205V105.784H45.3841C45.0773 106.449 44.6 107.014 43.9523 107.48C43.3046 107.94 42.4864 108.17 41.4978 108.17C40.6796 108.17 39.9523 107.991 39.3159 107.634C38.6796 107.27 38.1796 106.724 37.8159 105.997C37.4523 105.264 37.2705 104.341 37.2705 103.227V94.9091H39.2818V103.091C39.2818 104.045 39.5489 104.807 40.083 105.375C40.6228 105.943 41.3103 106.227 42.1455 106.227C42.6455 106.227 43.154 106.099 43.6711 105.844C44.1938 105.588 44.6313 105.196 44.9836 104.668C45.3415 104.139 45.5205 103.466 45.5205 102.648Z" fill="black"/>
<path d="M51.2158 108V94.9091H53.159V96.8864H53.2953C53.534 96.2386 53.9658 95.7131 54.5908 95.3097C55.2158 94.9062 55.9203 94.7045 56.7044 94.7045C56.8522 94.7045 57.0368 94.7074 57.2584 94.7131C57.48 94.7188 57.6476 94.7273 57.7613 94.7386V96.7841C57.6931 96.767 57.5368 96.7415 57.2925 96.7074C57.0539 96.6676 56.801 96.6477 56.534 96.6477C55.8976 96.6477 55.3294 96.7812 54.8294 97.0483C54.3351 97.3097 53.9431 97.6733 53.6533 98.1392C53.3692 98.5994 53.2272 99.125 53.2272 99.7159V108H51.2158Z" fill="black"/>
<path d="M72.3841 108.273C71.1228 108.273 70.0347 107.994 69.1199 107.438C68.2108 106.875 67.5091 106.091 67.0148 105.085C66.5262 104.074 66.2818 102.898 66.2818 101.557C66.2818 100.216 66.5262 99.0341 67.0148 98.0114C67.5091 96.983 68.1966 96.1818 69.0773 95.608C69.9637 95.0284 70.9978 94.7386 72.1796 94.7386C72.8614 94.7386 73.5347 94.8523 74.1995 95.0795C74.8642 95.3068 75.4693 95.6761 76.0148 96.1875C76.5603 96.6932 76.9949 97.3636 77.3188 98.1989C77.6426 99.0341 77.8046 100.062 77.8046 101.284V102.136H67.7137V100.398H75.7591C75.7591 99.6591 75.6114 99 75.3159 98.4205C75.0262 97.8409 74.6114 97.3835 74.0716 97.0483C73.5375 96.7131 72.9068 96.5455 72.1796 96.5455C71.3784 96.5455 70.6853 96.7443 70.1 97.142C69.5205 97.5341 69.0745 98.0455 68.762 98.6761C68.4495 99.3068 68.2932 99.983 68.2932 100.705V101.864C68.2932 102.852 68.4637 103.69 68.8046 104.378C69.1512 105.06 69.6313 105.58 70.2449 105.938C70.8586 106.29 71.5716 106.466 72.3841 106.466C72.9125 106.466 73.3898 106.392 73.8159 106.244C74.2478 106.091 74.6199 105.864 74.9324 105.562C75.2449 105.256 75.4864 104.875 75.6568 104.42L77.6 104.966C77.3955 105.625 77.0517 106.205 76.5688 106.705C76.0858 107.199 75.4892 107.585 74.779 107.864C74.0688 108.136 73.2705 108.273 72.3841 108.273Z" fill="black"/>
<path d="M80.8642 108V94.9091H82.8074V96.9545H82.9779C83.2506 96.2557 83.6909 95.7131 84.2989 95.3267C84.9068 94.9347 85.637 94.7386 86.4892 94.7386C87.3529 94.7386 88.0716 94.9347 88.6455 95.3267C89.225 95.7131 89.6767 96.2557 90.0006 96.9545H90.137C90.4722 96.2784 90.975 95.7415 91.6455 95.3438C92.3159 94.9403 93.1199 94.7386 94.0574 94.7386C95.2279 94.7386 96.1853 95.1051 96.9296 95.8381C97.6739 96.5653 98.0461 97.6989 98.0461 99.2386V108H96.0347V99.2386C96.0347 98.2727 95.7705 97.5824 95.2421 97.1676C94.7137 96.7528 94.0915 96.5455 93.3756 96.5455C92.4551 96.5455 91.7421 96.8239 91.2364 97.3807C90.7307 97.9318 90.4779 98.6307 90.4779 99.4773V108H88.4324V99.0341C88.4324 98.2898 88.1909 97.6903 87.708 97.2358C87.225 96.7756 86.6029 96.5455 85.8415 96.5455C85.3188 96.5455 84.8301 96.6847 84.3756 96.9631C83.9267 97.2415 83.5631 97.6278 83.2847 98.1222C83.012 98.6108 82.8756 99.1761 82.8756 99.8182V108H80.8642Z" fill="black"/>
<path d="M105.576 108.307C104.746 108.307 103.993 108.151 103.317 107.838C102.641 107.52 102.104 107.063 101.707 106.466C101.309 105.864 101.11 105.136 101.11 104.284C101.11 103.534 101.258 102.926 101.553 102.46C101.849 101.989 102.243 101.619 102.738 101.352C103.232 101.085 103.778 100.886 104.374 100.756C104.976 100.619 105.582 100.511 106.19 100.432C106.985 100.33 107.63 100.253 108.124 100.202C108.624 100.145 108.988 100.051 109.215 99.9205C109.448 99.7898 109.565 99.5625 109.565 99.2386V99.1705C109.565 98.3295 109.334 97.6761 108.874 97.2102C108.42 96.7443 107.729 96.5114 106.803 96.5114C105.843 96.5114 105.09 96.7216 104.545 97.142C103.999 97.5625 103.616 98.0114 103.394 98.4886L101.485 97.8068C101.826 97.0114 102.28 96.392 102.849 95.9489C103.422 95.5 104.047 95.1875 104.724 95.0114C105.405 94.8295 106.076 94.7386 106.735 94.7386C107.155 94.7386 107.638 94.7898 108.184 94.892C108.735 94.9886 109.266 95.1903 109.778 95.4972C110.295 95.804 110.724 96.267 111.065 96.8864C111.405 97.5057 111.576 98.3352 111.576 99.375V108H109.565V106.227H109.462C109.326 106.511 109.099 106.815 108.78 107.139C108.462 107.463 108.039 107.739 107.511 107.966C106.982 108.193 106.337 108.307 105.576 108.307ZM105.883 106.5C106.678 106.5 107.349 106.344 107.894 106.031C108.445 105.719 108.86 105.315 109.138 104.821C109.422 104.327 109.565 103.807 109.565 103.261V101.42C109.479 101.523 109.292 101.616 109.002 101.702C108.718 101.781 108.388 101.852 108.013 101.915C107.644 101.972 107.283 102.023 106.931 102.068C106.584 102.108 106.303 102.142 106.087 102.17C105.565 102.239 105.076 102.349 104.621 102.503C104.172 102.651 103.809 102.875 103.53 103.176C103.258 103.472 103.121 103.875 103.121 104.386C103.121 105.085 103.38 105.614 103.897 105.972C104.42 106.324 105.082 106.5 105.883 106.5Z" fill="black"/>
<path d="M115.247 108V94.9091H117.258V108H115.247ZM116.27 92.7273C115.878 92.7273 115.54 92.5938 115.256 92.3267C114.977 92.0597 114.838 91.7386 114.838 91.3636C114.838 90.9886 114.977 90.6676 115.256 90.4006C115.54 90.1335 115.878 90 116.27 90C116.662 90 116.997 90.1335 117.275 90.4006C117.56 90.6676 117.702 90.9886 117.702 91.3636C117.702 91.7386 117.56 92.0597 117.275 92.3267C116.997 92.5938 116.662 92.7273 116.27 92.7273Z" fill="black"/>
<path d="M122.954 90.5455V108H120.942V90.5455H122.954Z" fill="black"/>
</g>
<path fill-rule="evenodd" clip-rule="evenodd" d="M892 323.5H0V322.5H892V323.5Z" fill="black"/>
<g opacity="0.2">
<path d="M7.61353 180.545H10.034L14.8749 188.693H15.0794L19.9203 180.545H22.3408L16.034 190.807V198H13.9203V190.807L7.61353 180.545Z" fill="black"/>
<path d="M28.2684 198.273C27.0865 198.273 26.0496 197.991 25.1576 197.429C24.2712 196.866 23.578 196.08 23.078 195.068C22.5837 194.057 22.3365 192.875 22.3365 191.523C22.3365 190.159 22.5837 188.969 23.078 187.952C23.578 186.935 24.2712 186.145 25.1576 185.582C26.0496 185.02 27.0865 184.739 28.2684 184.739C29.4502 184.739 30.4843 185.02 31.3706 185.582C32.2627 186.145 32.9559 186.935 33.4502 187.952C33.9502 188.969 34.2002 190.159 34.2002 191.523C34.2002 192.875 33.9502 194.057 33.4502 195.068C32.9559 196.08 32.2627 196.866 31.3706 197.429C30.4843 197.991 29.4502 198.273 28.2684 198.273ZM28.2684 196.466C29.1661 196.466 29.9047 196.236 30.4843 195.776C31.0638 195.315 31.4928 194.71 31.7712 193.96C32.0496 193.21 32.1888 192.398 32.1888 191.523C32.1888 190.648 32.0496 189.832 31.7712 189.077C31.4928 188.321 31.0638 187.71 30.4843 187.244C29.9047 186.778 29.1661 186.545 28.2684 186.545C27.3706 186.545 26.632 186.778 26.0524 187.244C25.4729 187.71 25.0439 188.321 24.7655 189.077C24.4871 189.832 24.3479 190.648 24.3479 191.523C24.3479 192.398 24.4871 193.21 24.7655 193.96C25.0439 194.71 25.4729 195.315 26.0524 195.776C26.632 196.236 27.3706 196.466 28.2684 196.466Z" fill="black"/>
<path d="M45.5205 192.648V184.909H47.5318V198H45.5205V195.784H45.3841C45.0773 196.449 44.6 197.014 43.9523 197.48C43.3046 197.94 42.4864 198.17 41.4978 198.17C40.6796 198.17 39.9523 197.991 39.3159 197.633C38.6796 197.27 38.1796 196.724 37.8159 195.997C37.4523 195.264 37.2705 194.341 37.2705 193.227V184.909H39.2818V193.091C39.2818 194.045 39.5489 194.807 40.083 195.375C40.6228 195.943 41.3103 196.227 42.1455 196.227C42.6455 196.227 43.154 196.099 43.6711 195.844C44.1938 195.588 44.6313 195.196 44.9836 194.668C45.3415 194.139 45.5205 193.466 45.5205 192.648Z" fill="black"/>
<path d="M51.2158 198V184.909H53.159V186.886H53.2953C53.534 186.239 53.9658 185.713 54.5908 185.31C55.2158 184.906 55.9203 184.705 56.7044 184.705C56.8522 184.705 57.0368 184.707 57.2584 184.713C57.48 184.719 57.6476 184.727 57.7613 184.739V186.784C57.6931 186.767 57.5368 186.741 57.2925 186.707C57.0539 186.668 56.801 186.648 56.534 186.648C55.8976 186.648 55.3294 186.781 54.8294 187.048C54.3351 187.31 53.9431 187.673 53.6533 188.139C53.3692 188.599 53.2272 189.125 53.2272 189.716V198H51.2158Z" fill="black"/>
<path d="M66.8955 198V184.909H68.8387V186.955H69.0091C69.2818 186.256 69.7222 185.713 70.3301 185.327C70.9381 184.935 71.6682 184.739 72.5205 184.739C73.3841 184.739 74.1029 184.935 74.6767 185.327C75.2563 185.713 75.708 186.256 76.0318 186.955H76.1682C76.5034 186.278 77.0063 185.741 77.6767 185.344C78.3472 184.94 79.1512 184.739 80.0887 184.739C81.2591 184.739 82.2165 185.105 82.9608 185.838C83.7051 186.565 84.0773 187.699 84.0773 189.239V198H82.0659V189.239C82.0659 188.273 81.8017 187.582 81.2733 187.168C80.7449 186.753 80.1228 186.545 79.4068 186.545C78.4864 186.545 77.7733 186.824 77.2676 187.381C76.762 187.932 76.5091 188.631 76.5091 189.477V198H74.4637V189.034C74.4637 188.29 74.2222 187.69 73.7392 187.236C73.2563 186.776 72.6341 186.545 71.8728 186.545C71.35 186.545 70.8614 186.685 70.4068 186.963C69.958 187.241 69.5943 187.628 69.3159 188.122C69.0432 188.611 68.9068 189.176 68.9068 189.818V198H66.8955Z" fill="black"/>
<path d="M93.2435 198.273C91.9821 198.273 90.8941 197.994 89.9793 197.437C89.0702 196.875 88.3685 196.091 87.8742 195.085C87.3855 194.074 87.1412 192.898 87.1412 191.557C87.1412 190.216 87.3855 189.034 87.8742 188.011C88.3685 186.983 89.056 186.182 89.9367 185.608C90.823 185.028 91.8571 184.739 93.0389 184.739C93.7208 184.739 94.3941 184.852 95.0588 185.08C95.7236 185.307 96.3287 185.676 96.8742 186.187C97.4196 186.693 97.8543 187.364 98.1782 188.199C98.502 189.034 98.6639 190.062 98.6639 191.284V192.136H88.573V190.398H96.6185C96.6185 189.659 96.4708 189 96.1753 188.42C95.8855 187.841 95.4708 187.383 94.931 187.048C94.3969 186.713 93.7662 186.545 93.0389 186.545C92.2378 186.545 91.5446 186.744 90.9594 187.142C90.3799 187.534 89.9338 188.045 89.6213 188.676C89.3088 189.307 89.1526 189.983 89.1526 190.705V191.864C89.1526 192.852 89.323 193.69 89.6639 194.378C90.0105 195.06 90.4906 195.58 91.1043 195.937C91.7179 196.29 92.431 196.466 93.2435 196.466C93.7719 196.466 94.2492 196.392 94.6753 196.244C95.1071 196.091 95.4793 195.864 95.7918 195.562C96.1043 195.256 96.3458 194.875 96.5162 194.42L98.4594 194.966C98.2549 195.625 97.9111 196.205 97.4282 196.705C96.9452 197.199 96.3486 197.585 95.6384 197.864C94.9282 198.136 94.1299 198.273 93.2435 198.273Z" fill="black"/>
<path d="M110.996 187.841L109.19 188.352C109.076 188.051 108.908 187.758 108.687 187.474C108.471 187.185 108.175 186.946 107.8 186.758C107.425 186.571 106.945 186.477 106.36 186.477C105.559 186.477 104.891 186.662 104.357 187.031C103.829 187.395 103.565 187.858 103.565 188.42C103.565 188.92 103.746 189.315 104.11 189.605C104.474 189.895 105.042 190.136 105.815 190.33L107.758 190.807C108.928 191.091 109.8 191.526 110.374 192.111C110.948 192.69 111.235 193.437 111.235 194.352C111.235 195.102 111.019 195.773 110.587 196.364C110.161 196.955 109.565 197.42 108.797 197.761C108.03 198.102 107.138 198.273 106.121 198.273C104.786 198.273 103.681 197.983 102.806 197.403C101.931 196.824 101.377 195.977 101.144 194.864L103.053 194.386C103.235 195.091 103.579 195.619 104.084 195.972C104.596 196.324 105.263 196.5 106.087 196.5C107.025 196.5 107.769 196.301 108.32 195.903C108.877 195.5 109.155 195.017 109.155 194.455C109.155 194 108.996 193.619 108.678 193.312C108.36 193 107.871 192.767 107.212 192.614L105.03 192.102C103.832 191.818 102.951 191.378 102.388 190.781C101.832 190.179 101.553 189.426 101.553 188.523C101.553 187.784 101.761 187.131 102.175 186.562C102.596 185.994 103.167 185.548 103.888 185.224C104.616 184.901 105.44 184.739 106.36 184.739C107.655 184.739 108.672 185.023 109.411 185.591C110.155 186.159 110.684 186.909 110.996 187.841Z" fill="black"/>
<path d="M123.535 187.841L121.729 188.352C121.615 188.051 121.447 187.758 121.226 187.474C121.01 187.185 120.714 186.946 120.339 186.758C119.964 186.571 119.484 186.477 118.899 186.477C118.098 186.477 117.43 186.662 116.896 187.031C116.368 187.395 116.104 187.858 116.104 188.42C116.104 188.92 116.285 189.315 116.649 189.605C117.013 189.895 117.581 190.136 118.354 190.33L120.297 190.807C121.467 191.091 122.339 191.526 122.913 192.111C123.487 192.69 123.774 193.437 123.774 194.352C123.774 195.102 123.558 195.773 123.126 196.364C122.7 196.955 122.104 197.42 121.337 197.761C120.569 198.102 119.677 198.273 118.66 198.273C117.325 198.273 116.22 197.983 115.345 197.403C114.47 196.824 113.916 195.977 113.683 194.864L115.592 194.386C115.774 195.091 116.118 195.619 116.623 195.972C117.135 196.324 117.802 196.5 118.626 196.5C119.564 196.5 120.308 196.301 120.859 195.903C121.416 195.5 121.694 195.017 121.694 194.455C121.694 194 121.535 193.619 121.217 193.312C120.899 193 120.41 192.767 119.751 192.614L117.569 192.102C116.371 191.818 115.49 191.378 114.927 190.781C114.371 190.179 114.092 189.426 114.092 188.523C114.092 187.784 114.3 187.131 114.714 186.562C115.135 185.994 115.706 185.548 116.427 185.224C117.155 184.901 117.979 184.739 118.899 184.739C120.194 184.739 121.212 185.023 121.95 185.591C122.694 186.159 123.223 186.909 123.535 187.841Z" fill="black"/>
<path d="M130.654 198.307C129.824 198.307 129.072 198.151 128.395 197.838C127.719 197.52 127.182 197.062 126.785 196.466C126.387 195.864 126.188 195.136 126.188 194.284C126.188 193.534 126.336 192.926 126.631 192.46C126.927 191.989 127.322 191.619 127.816 191.352C128.31 191.085 128.856 190.886 129.452 190.756C130.055 190.619 130.66 190.511 131.268 190.432C132.063 190.33 132.708 190.253 133.202 190.202C133.702 190.145 134.066 190.051 134.293 189.92C134.526 189.79 134.643 189.562 134.643 189.239V189.17C134.643 188.33 134.413 187.676 133.952 187.21C133.498 186.744 132.807 186.511 131.881 186.511C130.921 186.511 130.168 186.722 129.623 187.142C129.077 187.562 128.694 188.011 128.472 188.489L126.563 187.807C126.904 187.011 127.359 186.392 127.927 185.949C128.501 185.5 129.126 185.187 129.802 185.011C130.484 184.83 131.154 184.739 131.813 184.739C132.234 184.739 132.717 184.79 133.262 184.892C133.813 184.989 134.344 185.19 134.856 185.497C135.373 185.804 135.802 186.267 136.143 186.886C136.484 187.506 136.654 188.335 136.654 189.375V198H134.643V196.227H134.54C134.404 196.511 134.177 196.815 133.859 197.139C133.54 197.463 133.117 197.739 132.589 197.966C132.06 198.193 131.415 198.307 130.654 198.307ZM130.961 196.5C131.756 196.5 132.427 196.344 132.972 196.031C133.523 195.719 133.938 195.315 134.217 194.821C134.501 194.327 134.643 193.807 134.643 193.261V191.42C134.557 191.523 134.37 191.616 134.08 191.702C133.796 191.781 133.467 191.852 133.092 191.915C132.722 191.972 132.361 192.023 132.009 192.068C131.663 192.108 131.381 192.142 131.165 192.17C130.643 192.239 130.154 192.349 129.699 192.503C129.251 192.651 128.887 192.875 128.609 193.176C128.336 193.472 128.199 193.875 128.199 194.386C128.199 195.085 128.458 195.614 128.975 195.972C129.498 196.324 130.16 196.5 130.961 196.5Z" fill="black"/>
<path d="M145.609 203.182C144.638 203.182 143.802 203.057 143.104 202.807C142.405 202.562 141.822 202.239 141.356 201.835C140.896 201.437 140.53 201.011 140.257 200.557L141.859 199.432C142.041 199.67 142.271 199.943 142.55 200.25C142.828 200.562 143.209 200.832 143.692 201.06C144.18 201.293 144.819 201.409 145.609 201.409C146.666 201.409 147.538 201.153 148.226 200.642C148.913 200.131 149.257 199.33 149.257 198.239V195.58H149.087C148.939 195.818 148.729 196.114 148.456 196.466C148.189 196.812 147.802 197.122 147.297 197.395C146.797 197.662 146.121 197.795 145.268 197.795C144.212 197.795 143.263 197.545 142.422 197.045C141.587 196.545 140.925 195.818 140.436 194.864C139.953 193.909 139.712 192.75 139.712 191.386C139.712 190.045 139.947 188.878 140.419 187.883C140.891 186.883 141.547 186.111 142.388 185.565C143.229 185.014 144.2 184.739 145.302 184.739C146.155 184.739 146.831 184.881 147.331 185.165C147.837 185.443 148.223 185.761 148.49 186.119C148.763 186.472 148.973 186.761 149.121 186.989H149.325V184.909H151.268V198.375C151.268 199.5 151.013 200.415 150.501 201.119C149.996 201.83 149.314 202.349 148.456 202.679C147.604 203.014 146.655 203.182 145.609 203.182ZM145.541 195.989C146.348 195.989 147.03 195.804 147.587 195.435C148.143 195.065 148.567 194.534 148.856 193.841C149.146 193.148 149.291 192.318 149.291 191.352C149.291 190.409 149.149 189.577 148.865 188.855C148.581 188.133 148.16 187.568 147.604 187.159C147.047 186.75 146.359 186.545 145.541 186.545C144.689 186.545 143.979 186.761 143.41 187.193C142.848 187.625 142.425 188.205 142.141 188.932C141.862 189.659 141.723 190.466 141.723 191.352C141.723 192.261 141.865 193.065 142.149 193.764C142.439 194.457 142.865 195.003 143.427 195.401C143.996 195.793 144.7 195.989 145.541 195.989Z" fill="black"/>
<path d="M160.439 198.273C159.177 198.273 158.089 197.994 157.175 197.437C156.266 196.875 155.564 196.091 155.069 195.085C154.581 194.074 154.337 192.898 154.337 191.557C154.337 190.216 154.581 189.034 155.069 188.011C155.564 186.983 156.251 186.182 157.132 185.608C158.018 185.028 159.052 184.739 160.234 184.739C160.916 184.739 161.589 184.852 162.254 185.08C162.919 185.307 163.524 185.676 164.069 186.187C164.615 186.693 165.05 187.364 165.373 188.199C165.697 189.034 165.859 190.062 165.859 191.284V192.136H155.768V190.398H163.814C163.814 189.659 163.666 189 163.371 188.42C163.081 187.841 162.666 187.383 162.126 187.048C161.592 186.713 160.962 186.545 160.234 186.545C159.433 186.545 158.74 186.744 158.155 187.142C157.575 187.534 157.129 188.045 156.817 188.676C156.504 189.307 156.348 189.983 156.348 190.705V191.864C156.348 192.852 156.518 193.69 156.859 194.378C157.206 195.06 157.686 195.58 158.3 195.937C158.913 196.29 159.626 196.466 160.439 196.466C160.967 196.466 161.444 196.392 161.871 196.244C162.302 196.091 162.675 195.864 162.987 195.562C163.3 195.256 163.541 194.875 163.712 194.42L165.655 194.966C165.45 195.625 165.106 196.205 164.623 196.705C164.141 197.199 163.544 197.585 162.834 197.864C162.123 198.136 161.325 198.273 160.439 198.273Z" fill="black"/>
<path d="M170.385 198.136C169.964 198.136 169.604 197.986 169.302 197.685C169.001 197.383 168.851 197.023 168.851 196.602C168.851 196.182 169.001 195.821 169.302 195.52C169.604 195.219 169.964 195.068 170.385 195.068C170.805 195.068 171.166 195.219 171.467 195.52C171.768 195.821 171.919 196.182 171.919 196.602C171.919 196.881 171.848 197.136 171.706 197.369C171.569 197.602 171.385 197.79 171.152 197.932C170.925 198.068 170.669 198.136 170.385 198.136Z" fill="black"/>
<path d="M176.994 198.136C176.574 198.136 176.213 197.986 175.912 197.685C175.611 197.383 175.46 197.023 175.46 196.602C175.46 196.182 175.611 195.821 175.912 195.52C176.213 195.219 176.574 195.068 176.994 195.068C177.415 195.068 177.775 195.219 178.077 195.52C178.378 195.821 178.528 196.182 178.528 196.602C178.528 196.881 178.457 197.136 178.315 197.369C178.179 197.602 177.994 197.79 177.761 197.932C177.534 198.068 177.278 198.136 176.994 198.136Z" fill="black"/>
<path d="M183.604 198.136C183.183 198.136 182.822 197.986 182.521 197.685C182.22 197.383 182.069 197.023 182.069 196.602C182.069 196.182 182.22 195.821 182.521 195.52C182.822 195.219 183.183 195.068 183.604 195.068C184.024 195.068 184.385 195.219 184.686 195.52C184.987 195.821 185.138 196.182 185.138 196.602C185.138 196.881 185.067 197.136 184.925 197.369C184.788 197.602 184.604 197.79 184.371 197.932C184.143 198.068 183.888 198.136 183.604 198.136Z" fill="black"/>
</g>
<path d="M0 356H196V402H0V356Z" fill="black"/>
<path d="M42.342 376.508C42.2823 375.95 42.0309 375.515 41.5877 375.204C41.1488 374.893 40.5778 374.737 39.8747 374.737C39.3803 374.737 38.9563 374.812 38.6026 374.961C38.249 375.11 37.9784 375.313 37.7909 375.568C37.6034 375.824 37.5075 376.116 37.5032 376.444C37.5032 376.717 37.565 376.953 37.6886 377.154C37.8164 377.354 37.989 377.524 38.2063 377.665C38.4237 377.801 38.6644 377.916 38.9286 378.01C39.1928 378.104 39.4592 378.183 39.7276 378.247L40.9549 378.553C41.4492 378.668 41.9244 378.824 42.3803 379.02C42.8406 379.216 43.2518 379.463 43.614 379.761C43.9805 380.06 44.2703 380.42 44.4833 380.842C44.6964 381.264 44.8029 381.758 44.8029 382.325C44.8029 383.092 44.6069 383.767 44.2149 384.351C43.8228 384.931 43.2561 385.384 42.5146 385.712C41.7774 386.036 40.8846 386.198 39.8363 386.198C38.8178 386.198 37.9336 386.041 37.1836 385.725C36.4379 385.41 35.8541 384.95 35.4322 384.345C35.0146 383.739 34.7887 383.002 34.7546 382.133H37.0877C37.1218 382.589 37.2625 382.968 37.5096 383.271C37.7568 383.573 38.0785 383.799 38.4748 383.948C38.8754 384.097 39.3228 384.172 39.8171 384.172C40.3328 384.172 40.7845 384.095 41.1723 383.942C41.5643 383.784 41.8711 383.567 42.0927 383.29C42.3143 383.009 42.4272 382.681 42.4315 382.306C42.4272 381.965 42.3271 381.683 42.1311 381.462C41.935 381.236 41.6602 381.048 41.3065 380.899C40.9571 380.746 40.548 380.609 40.0792 380.49L38.5899 380.107C37.5117 379.83 36.6595 379.41 36.033 378.847C35.4109 378.281 35.0998 377.529 35.0998 376.591C35.0998 375.82 35.3086 375.144 35.7262 374.565C36.1481 373.985 36.7213 373.536 37.4457 373.216C38.1701 372.892 38.9904 372.73 39.9066 372.73C40.8356 372.73 41.6495 372.892 42.3484 373.216C43.0515 373.536 43.6034 373.981 44.0039 374.552C44.4045 375.119 44.6112 375.771 44.624 376.508H42.342Z" fill="white"/>
<path d="M51.1614 386.192C50.177 386.192 49.3269 385.987 48.611 385.578C47.8993 385.165 47.3518 384.581 46.9682 383.827C46.5847 383.068 46.393 382.176 46.393 381.149C46.393 380.139 46.5847 379.252 46.9682 378.489C47.356 377.722 47.8972 377.126 48.5918 376.7C49.2864 376.269 50.1025 376.054 51.04 376.054C51.6451 376.054 52.2161 376.152 52.753 376.348C53.2942 376.54 53.7715 376.838 54.1849 377.243C54.6025 377.648 54.9306 378.163 55.1692 378.79C55.4079 379.412 55.5272 380.154 55.5272 381.014V381.724H47.4796V380.164H53.3091C53.3049 379.721 53.209 379.327 53.0215 378.982C52.834 378.632 52.5719 378.357 52.2353 378.157C51.9029 377.957 51.5151 377.857 51.0719 377.857C50.5989 377.857 50.1834 377.972 49.8255 378.202C49.4675 378.428 49.1884 378.726 48.9881 379.097C48.7921 379.463 48.692 379.866 48.6877 380.305V381.666C48.6877 382.237 48.7921 382.727 49.0009 383.136C49.2097 383.541 49.5016 383.852 49.8766 384.07C50.2516 384.283 50.6905 384.389 51.1934 384.389C51.53 384.389 51.8347 384.342 52.1074 384.249C52.3802 384.151 52.6167 384.008 52.817 383.82C53.0172 383.633 53.1685 383.401 53.2708 383.124L55.4313 383.367C55.2949 383.938 55.035 384.436 54.6515 384.862C54.2722 385.284 53.7864 385.612 53.1941 385.847C52.6018 386.077 51.9242 386.192 51.1614 386.192Z" fill="white"/>
<path d="M59.7987 380.247V386H57.4848V376.182H59.6964V377.85H59.8115C60.0373 377.301 60.3974 376.864 60.8917 376.54C61.3903 376.216 62.0061 376.054 62.739 376.054C63.4166 376.054 64.0068 376.199 64.5096 376.489C65.0167 376.779 65.4088 377.198 65.6857 377.748C65.967 378.298 66.1055 378.965 66.1012 379.749V386H63.7873V380.107C63.7873 379.45 63.6169 378.937 63.2759 378.566C62.9393 378.195 62.4727 378.01 61.8761 378.01C61.4713 378.01 61.1112 378.1 60.7958 378.279C60.4848 378.453 60.2397 378.707 60.0607 379.039C59.886 379.372 59.7987 379.774 59.7987 380.247Z" fill="white"/>
<path d="M72.097 386.173C71.3257 386.173 70.6353 385.975 70.0259 385.578C69.4166 385.182 68.935 384.607 68.5813 383.852C68.2277 383.098 68.0508 382.182 68.0508 381.104C68.0508 380.013 68.2298 379.092 68.5877 378.342C68.95 377.588 69.4379 377.019 70.0515 376.636C70.6652 376.248 71.3491 376.054 72.1034 376.054C72.6786 376.054 73.1517 376.152 73.5224 376.348C73.8931 376.54 74.1872 376.772 74.4045 377.045C74.6218 377.313 74.7902 377.567 74.9095 377.806H75.0053V372.909H77.3257V386H75.0501V384.453H74.9095C74.7902 384.692 74.6176 384.945 74.3917 385.214C74.1659 385.478 73.8676 385.704 73.4968 385.891C73.1261 386.079 72.6595 386.173 72.097 386.173ZM72.7426 384.274C73.2326 384.274 73.6502 384.142 73.9954 383.878C74.3406 383.609 74.6026 383.237 74.7816 382.759C74.9606 382.282 75.0501 381.726 75.0501 381.091C75.0501 380.456 74.9606 379.904 74.7816 379.435C74.6069 378.967 74.347 378.602 74.0018 378.342C73.6609 378.082 73.2411 377.953 72.7426 377.953C72.2269 377.953 71.7965 378.087 71.4514 378.355C71.1062 378.624 70.8463 378.994 70.6715 379.467C70.4968 379.94 70.4095 380.482 70.4095 381.091C70.4095 381.705 70.4968 382.252 70.6715 382.734C70.8505 383.211 71.1126 383.588 71.4578 383.865C71.8072 384.138 72.2355 384.274 72.7426 384.274Z" fill="white"/>
<path d="M84.3585 372.909H87.2605L91.1469 382.395H91.3003L95.1866 372.909H98.0886V386H95.8131V377.007H95.6916L92.0737 385.962H90.3734L86.7555 376.987H86.6341V386H84.3585V372.909Z" fill="white"/>
<path d="M104.915 386.192C103.931 386.192 103.081 385.987 102.365 385.578C101.653 385.165 101.106 384.581 100.722 383.827C100.339 383.068 100.147 382.176 100.147 381.149C100.147 380.139 100.339 379.252 100.722 378.489C101.11 377.722 101.651 377.126 102.346 376.7C103.04 376.269 103.856 376.054 104.794 376.054C105.399 376.054 105.97 376.152 106.507 376.348C107.048 376.54 107.525 376.838 107.939 377.243C108.356 377.648 108.685 378.163 108.923 378.79C109.162 379.412 109.281 380.154 109.281 381.014V381.724H101.234V380.164H107.063C107.059 379.721 106.963 379.327 106.775 378.982C106.588 378.632 106.326 378.357 105.989 378.157C105.657 377.957 105.269 377.857 104.826 377.857C104.353 377.857 103.937 377.972 103.579 378.202C103.221 378.428 102.942 378.726 102.742 379.097C102.546 379.463 102.446 379.866 102.442 380.305V381.666C102.442 382.237 102.546 382.727 102.755 383.136C102.964 383.541 103.256 383.852 103.631 384.07C104.006 384.283 104.444 384.389 104.947 384.389C105.284 384.389 105.589 384.342 105.861 384.249C106.134 384.151 106.371 384.008 106.571 383.82C106.771 383.633 106.922 383.401 107.025 383.124L109.185 383.367C109.049 383.938 108.789 384.436 108.405 384.862C108.026 385.284 107.54 385.612 106.948 385.847C106.356 386.077 105.678 386.192 104.915 386.192Z" fill="white"/>
<path d="M118.999 378.777L116.889 379.007C116.83 378.794 116.725 378.594 116.576 378.406C116.431 378.219 116.235 378.068 115.988 377.953C115.741 377.837 115.438 377.78 115.08 377.78C114.599 377.78 114.194 377.884 113.866 378.093C113.542 378.302 113.382 378.573 113.386 378.905C113.382 379.19 113.487 379.423 113.7 379.602C113.917 379.781 114.275 379.928 114.773 380.043L116.448 380.401C117.377 380.601 118.067 380.918 118.519 381.353C118.975 381.788 119.205 382.357 119.21 383.06C119.205 383.678 119.024 384.223 118.666 384.696C118.313 385.165 117.82 385.531 117.19 385.796C116.559 386.06 115.835 386.192 115.016 386.192C113.815 386.192 112.847 385.94 112.114 385.438C111.381 384.931 110.945 384.225 110.804 383.322L113.06 383.105C113.163 383.548 113.38 383.882 113.712 384.108C114.045 384.334 114.477 384.447 115.01 384.447C115.56 384.447 116.001 384.334 116.333 384.108C116.67 383.882 116.838 383.603 116.838 383.271C116.838 382.989 116.729 382.757 116.512 382.574C116.299 382.391 115.967 382.25 115.515 382.152L113.84 381.801C112.898 381.605 112.202 381.274 111.75 380.81C111.298 380.341 111.075 379.749 111.079 379.033C111.075 378.428 111.239 377.904 111.571 377.46C111.908 377.013 112.374 376.668 112.971 376.425C113.572 376.178 114.264 376.054 115.048 376.054C116.199 376.054 117.104 376.299 117.765 376.789C118.43 377.279 118.841 377.942 118.999 378.777Z" fill="white"/>
<path d="M128.878 378.777L126.768 379.007C126.708 378.794 126.604 378.594 126.455 378.406C126.31 378.219 126.114 378.068 125.867 377.953C125.62 377.837 125.317 377.78 124.959 377.78C124.478 377.78 124.073 377.884 123.745 378.093C123.421 378.302 123.261 378.573 123.265 378.905C123.261 379.19 123.365 379.423 123.578 379.602C123.796 379.781 124.154 379.928 124.652 380.043L126.327 380.401C127.256 380.601 127.946 380.918 128.398 381.353C128.854 381.788 129.084 382.357 129.088 383.06C129.084 383.678 128.903 384.223 128.545 384.696C128.191 385.165 127.699 385.531 127.069 385.796C126.438 386.06 125.713 386.192 124.895 386.192C123.694 386.192 122.726 385.94 121.993 385.438C121.26 384.931 120.824 384.225 120.683 383.322L122.939 383.105C123.042 383.548 123.259 383.882 123.591 384.108C123.924 384.334 124.356 384.447 124.889 384.447C125.439 384.447 125.88 384.334 126.212 384.108C126.549 383.882 126.717 383.603 126.717 383.271C126.717 382.989 126.608 382.757 126.391 382.574C126.178 382.391 125.846 382.25 125.394 382.152L123.719 381.801C122.777 381.605 122.081 381.274 121.629 380.81C121.177 380.341 120.954 379.749 120.958 379.033C120.954 378.428 121.118 377.904 121.45 377.46C121.787 377.013 122.253 376.668 122.85 376.425C123.451 376.178 124.143 376.054 124.927 376.054C126.078 376.054 126.983 376.299 127.644 376.789C128.309 377.279 128.72 377.942 128.878 378.777Z" fill="white"/>
<path d="M133.822 386.198C133.2 386.198 132.639 386.087 132.141 385.866C131.646 385.64 131.254 385.308 130.965 384.869C130.679 384.43 130.536 383.889 130.536 383.245C130.536 382.691 130.639 382.233 130.843 381.871C131.048 381.509 131.327 381.219 131.68 381.002C132.034 380.784 132.433 380.62 132.876 380.509C133.323 380.394 133.786 380.311 134.263 380.26C134.838 380.2 135.305 380.147 135.663 380.1C136.021 380.049 136.281 379.972 136.442 379.87C136.609 379.764 136.692 379.6 136.692 379.378V379.34C136.692 378.858 136.549 378.485 136.264 378.221C135.978 377.957 135.567 377.825 135.03 377.825C134.463 377.825 134.014 377.948 133.681 378.195C133.353 378.443 133.131 378.734 133.016 379.071L130.856 378.764C131.026 378.168 131.308 377.669 131.7 377.269C132.092 376.864 132.571 376.561 133.138 376.361C133.705 376.156 134.331 376.054 135.017 376.054C135.49 376.054 135.961 376.109 136.43 376.22C136.898 376.331 137.327 376.514 137.715 376.77C138.102 377.021 138.413 377.364 138.648 377.799C138.886 378.234 139.006 378.777 139.006 379.429V386H136.781V384.651H136.705C136.564 384.924 136.366 385.18 136.11 385.418C135.859 385.653 135.541 385.842 135.158 385.987C134.778 386.128 134.333 386.198 133.822 386.198ZM134.423 384.498C134.887 384.498 135.29 384.406 135.631 384.223C135.972 384.036 136.234 383.788 136.417 383.482C136.604 383.175 136.698 382.84 136.698 382.478V381.321C136.626 381.381 136.502 381.436 136.327 381.487C136.157 381.538 135.965 381.583 135.752 381.622C135.539 381.66 135.328 381.694 135.119 381.724C134.911 381.754 134.729 381.779 134.576 381.801C134.231 381.847 133.922 381.924 133.649 382.031C133.376 382.137 133.161 382.286 133.004 382.478C132.846 382.666 132.767 382.908 132.767 383.207C132.767 383.633 132.923 383.955 133.234 384.172C133.545 384.389 133.941 384.498 134.423 384.498Z" fill="white"/>
<path d="M145.602 389.886C144.771 389.886 144.058 389.774 143.461 389.548C142.864 389.326 142.385 389.028 142.023 388.653C141.661 388.278 141.409 387.862 141.268 387.406L143.352 386.901C143.446 387.093 143.582 387.283 143.761 387.47C143.94 387.662 144.181 387.82 144.484 387.943C144.79 388.071 145.176 388.135 145.641 388.135C146.297 388.135 146.84 387.975 147.271 387.656C147.701 387.34 147.916 386.82 147.916 386.096V384.236H147.801C147.682 384.475 147.507 384.72 147.277 384.971C147.051 385.222 146.751 385.433 146.376 385.604C146.005 385.774 145.538 385.859 144.976 385.859C144.222 385.859 143.538 385.683 142.924 385.329C142.315 384.971 141.829 384.438 141.467 383.731C141.109 383.019 140.93 382.129 140.93 381.059C140.93 379.981 141.109 379.071 141.467 378.33C141.829 377.584 142.317 377.019 142.93 376.636C143.544 376.248 144.228 376.054 144.982 376.054C145.558 376.054 146.031 376.152 146.401 376.348C146.776 376.54 147.075 376.772 147.296 377.045C147.518 377.313 147.686 377.567 147.801 377.806H147.929V376.182H150.211V386.16C150.211 386.999 150.011 387.694 149.61 388.244C149.21 388.793 148.662 389.205 147.967 389.477C147.273 389.75 146.484 389.886 145.602 389.886ZM145.621 384.044C146.112 384.044 146.529 383.925 146.874 383.686C147.219 383.448 147.482 383.105 147.661 382.657C147.84 382.21 147.929 381.673 147.929 381.046C147.929 380.428 147.84 379.887 147.661 379.423C147.486 378.958 147.226 378.598 146.881 378.342C146.54 378.082 146.12 377.953 145.621 377.953C145.106 377.953 144.675 378.087 144.33 378.355C143.985 378.624 143.725 378.992 143.55 379.461C143.376 379.926 143.288 380.454 143.288 381.046C143.288 381.647 143.376 382.173 143.55 382.625C143.729 383.073 143.991 383.422 144.337 383.673C144.686 383.921 145.114 384.044 145.621 384.044Z" fill="white"/>
<path d="M156.929 386.192C155.945 386.192 155.094 385.987 154.379 385.578C153.667 385.165 153.119 384.581 152.736 383.827C152.352 383.068 152.161 382.176 152.161 381.149C152.161 380.139 152.352 379.252 152.736 378.489C153.124 377.722 153.665 377.126 154.359 376.7C155.054 376.269 155.87 376.054 156.808 376.054C157.413 376.054 157.984 376.152 158.521 376.348C159.062 376.54 159.539 376.838 159.952 377.243C160.37 377.648 160.698 378.163 160.937 378.79C161.175 379.412 161.295 380.154 161.295 381.014V381.724H153.247V380.164H159.077C159.072 379.721 158.977 379.327 158.789 378.982C158.602 378.632 158.34 378.357 158.003 378.157C157.67 377.957 157.283 377.857 156.84 377.857C156.367 377.857 155.951 377.972 155.593 378.202C155.235 378.428 154.956 378.726 154.756 379.097C154.56 379.463 154.46 379.866 154.455 380.305V381.666C154.455 382.237 154.56 382.727 154.768 383.136C154.977 383.541 155.269 383.852 155.644 384.07C156.019 384.283 156.458 384.389 156.961 384.389C157.298 384.389 157.602 384.342 157.875 384.249C158.148 384.151 158.384 384.008 158.585 383.82C158.785 383.633 158.936 383.401 159.038 383.124L161.199 383.367C161.063 383.938 160.803 384.436 160.419 384.862C160.04 385.284 159.554 385.612 158.962 385.847C158.369 386.077 157.692 386.192 156.929 386.192Z" fill="white"/>
</svg>
